<?xml version="1.0" encoding="utf-8"?>
<!-- Generator: Adobe Illustrator 15.1.0, SVG Export Plug-In . SVG Version: 6.00 Build 0)  -->
<!DOCTYPE svg PUBLIC "-//W3C//DTD SVG 1.1//EN" "http://www.w3.org/Graphics/SVG/1.1/DTD/svg11.dtd">
<svg version="1.1" xmlns="http://www.w3.org/2000/svg" xmlns:xlink="http://www.w3.org/1999/xlink" x="0px" y="0px" width="60px"
	 height="300px" viewBox="0 0 60 300" enable-background="new 0 0 60 300" xml:space="preserve">
<g id="Layer_1">
	<path fill="none" stroke="#000000" stroke-width="20" d="M20,299.999c0-30,20-45,20-75s-20-45-20-75s20-45,20-75s-20-45-20-75"/>
</g>
<g id="Layer_2">
	<rect display="none" width="60" height="300"/>
	<path fill="#DD94AC" d="M15,277.999c0-49.706,6.715-90,15-90c8.284,0,15,40.294,15,90c0,7.59-0.157,14.96-0.452,22.001
		l-29.097-0.001C15.156,292.959,15,285.588,15,277.999z"/>
	<path fill="#C26291" d="M20,299.999c0-33.138,4.477-60,10-60c5.522,0,10,26.862,10,60H20z"/>
	<path fill="#F8F1E8" d="M18,299.999c0-6.628,5.373-12,12-12s12,5.372,12,12H18z"/>
	<path fill="#F8F1E8" d="M18,299.999c0-6.628,5.373-22,12-22s12,15.372,12,22H18z"/>
	<path fill="#3D5581" d="M24,299.999c0-3.313,2.687-6,6-6s6,2.687,6,6H24z"/>
</g>
</svg>
