<?xml version="1.0" encoding="utf-8"?>
<!-- Generator: Adobe Illustrator 15.1.0, SVG Export Plug-In . SVG Version: 6.00 Build 0)  -->
<!DOCTYPE svg PUBLIC "-//W3C//DTD SVG 1.1//EN" "http://www.w3.org/Graphics/SVG/1.1/DTD/svg11.dtd">
<svg version="1.1" xmlns="http://www.w3.org/2000/svg" xmlns:xlink="http://www.w3.org/1999/xlink" x="0px" y="0px" width="60px"
	 height="300px" viewBox="0 0 60 300" enable-background="new 0 0 60 300" xml:space="preserve">
<g id="Layer_1">
	<path display="none" fill="none" stroke="#000000" stroke-width="20" d="M20,299.999c0-30,20-45,20-75s-20-45-20-75s20-45,20-75
		s-20-45-20-75"/>
	<path fill="none" stroke="#FFFF66" stroke-width="20" d="M40,299.999c0-30-20-45-20-75s20-45,20-75s-20-45-20-75s20-45,20-75"/>
	<path fill="none" stroke="#FF69B4" stroke-width="20" d="M20,299.999c0-30,20-45,20-75s-20-45-20-75s20-45,20-75s-20-45-20-75"/>
</g>
<g id="Layer_2">
	<rect display="none" width="60" height="300"/>
	<path fill="#3D5581" d="M11.667,290.669c0-21.081,8.207-38.17,18.333-38.17c10.124,0,18.332,17.089,18.332,38.17
		c0,3.22-0.191,6.345-0.552,9.331H12.219C11.858,297.014,11.667,293.889,11.667,290.669z"/>
	<path fill="#FF69B4" d="M20,299.999c0-18.226,4.477-33,10-33c5.522,0,10,14.774,10,33H20z"/>
	<polygon fill="#FFFF66" points="59.023,299.999 9.939,299.999 0.977,286.751 16.924,285.498 21.693,270.23 32.615,281.918 
		47.527,276.127 45.199,291.952 	"/>
	<polygon fill="#35BDF2" points="0.977,299.999 50.061,299.999 59.023,286.751 43.076,285.498 38.307,270.23 27.385,281.918 
		12.473,276.127 14.801,291.952 	"/>
	<path display="none" fill="#F8F1E8" d="M42,0c0,6.627-5.373,12-12,12c-6.627,0-12-5.373-12-12H42z"/>
	<path fill="#F8F1E8" d="M18,299.999c0-4.017,5.373-13.334,12-13.334s12,9.317,12,13.334H18z"/>
	<path fill="#35BDF2" d="M24,299.999c0-3.313,2.687-6,6-6s6,2.687,6,6H24z"/>
</g>
</svg>
