<?xml version="1.0" encoding="utf-8"?>
<!-- Generator: Adobe Illustrator 15.1.0, SVG Export Plug-In . SVG Version: 6.00 Build 0)  -->
<!DOCTYPE svg PUBLIC "-//W3C//DTD SVG 1.1//EN" "http://www.w3.org/Graphics/SVG/1.1/DTD/svg11.dtd">
<svg version="1.1" xmlns="http://www.w3.org/2000/svg" xmlns:xlink="http://www.w3.org/1999/xlink" x="0px" y="0px" width="60px"
	 height="300px" viewBox="0 0 60 300" enable-background="new 0 0 60 300" xml:space="preserve">
<g id="Layer_1">
	<path fill="none" stroke="#000000" stroke-width="20" d="M40,0c0,30-20,45-20,75s20,45,20,75s-20,45-20,75s20,45,20,75"/>
</g>
<g id="Layer_2">
	<rect display="none" width="60" height="300"/>
	<path fill="#DD94AC" d="M45,22c0,49.706-6.715,90-15,90c-8.284,0-15-40.294-15-90c0-7.59,0.157-14.96,0.452-22.001L44.549,0
		C44.844,7.041,45,14.411,45,22z"/>
	<path fill="#C26291" d="M40,0c0,33.137-4.477,60-10,60c-5.523,0-10-26.863-10-60H40z"/>
	<path fill="#F8F1E8" d="M42,0c0,6.627-5.373,12-12,12c-6.627,0-12-5.373-12-12H42z"/>
	<path fill="#F8F1E8" d="M42,0c0,6.627-5.373,22-12,22C23.373,22,18,6.627,18,0H42z"/>
	<path fill="#3D5581" d="M36,0c0,3.314-2.687,6-6,6c-3.314,0-6-2.686-6-6H36z"/>
</g>
</svg>
